<mxfile host="app.diagrams.net" agent="Mozilla/5.0 (Windows NT 10.0; Win64; x64) AppleWebKit/537.36 (KHTML, like Gecko) Chrome/129.0.0.0 Safari/537.36" version="24.7.16">
  <diagram id="R2lEEEUBdFMjLlhIrx00" name="Page-1">
    <mxGraphModel dx="896" dy="1583" grid="1" gridSize="10" guides="1" tooltips="1" connect="1" arrows="1" fold="1" page="1" pageScale="1" pageWidth="850" pageHeight="1100" math="0" shadow="0" extFonts="Permanent Marker^https://fonts.googleapis.com/css?family=Permanent+Marker">
      <root>
        <mxCell id="0" />
        <mxCell id="1" parent="0" />
        <mxCell id="IwKMfdMyqlhypNHNIi63-1" value="SEGURO" style="rounded=1;whiteSpace=wrap;html=1;" vertex="1" parent="1">
          <mxGeometry x="365" y="370" width="120" height="60" as="geometry" />
        </mxCell>
        <mxCell id="IwKMfdMyqlhypNHNIi63-2" value="&lt;ul&gt;&lt;li&gt;&lt;u&gt;Cod_Seguro&lt;/u&gt;&lt;/li&gt;&lt;li&gt;Descripción&lt;/li&gt;&lt;li&gt;Precio&lt;/li&gt;&lt;/ul&gt;" style="text;strokeColor=none;fillColor=none;html=1;whiteSpace=wrap;verticalAlign=middle;overflow=hidden;" vertex="1" parent="1">
          <mxGeometry x="355" y="417" width="130" height="80" as="geometry" />
        </mxCell>
        <mxCell id="IwKMfdMyqlhypNHNIi63-3" value="CLIENTE" style="rounded=1;whiteSpace=wrap;html=1;" vertex="1" parent="1">
          <mxGeometry x="704" y="140" width="120" height="60" as="geometry" />
        </mxCell>
        <mxCell id="IwKMfdMyqlhypNHNIi63-4" value="&lt;ul&gt;&lt;li&gt;&lt;u&gt;ID_Cliente&lt;/u&gt;&lt;/li&gt;&lt;li&gt;DNI&lt;/li&gt;&lt;li&gt;Nombre&lt;/li&gt;&lt;li&gt;Apellidos&lt;/li&gt;&lt;li&gt;Teléfono&lt;/li&gt;&lt;/ul&gt;" style="text;strokeColor=none;fillColor=none;html=1;whiteSpace=wrap;verticalAlign=middle;overflow=hidden;" vertex="1" parent="1">
          <mxGeometry x="699" y="50" width="130" height="100" as="geometry" />
        </mxCell>
        <mxCell id="IwKMfdMyqlhypNHNIi63-6" value="PÓLIZA" style="rounded=1;whiteSpace=wrap;html=1;" vertex="1" parent="1">
          <mxGeometry x="365" y="140" width="120" height="60" as="geometry" />
        </mxCell>
        <mxCell id="IwKMfdMyqlhypNHNIi63-7" value="&lt;ul&gt;&lt;li&gt;&lt;u&gt;Num_póliza&lt;/u&gt;&lt;/li&gt;&lt;li&gt;Matrícula&lt;/li&gt;&lt;li&gt;Modelo&lt;/li&gt;&lt;li&gt;FechaInicio&lt;/li&gt;&lt;li&gt;FechaRecibo&lt;/li&gt;&lt;/ul&gt;&lt;div&gt;&lt;/div&gt;" style="text;strokeColor=none;fillColor=none;html=1;whiteSpace=wrap;verticalAlign=middle;overflow=hidden;" vertex="1" parent="1">
          <mxGeometry x="440" y="49" width="120" height="92" as="geometry" />
        </mxCell>
        <mxCell id="IwKMfdMyqlhypNHNIi63-10" value="CUBRIR" style="rhombus;whiteSpace=wrap;html=1;" vertex="1" parent="1">
          <mxGeometry x="560" y="130" width="80" height="80" as="geometry" />
        </mxCell>
        <mxCell id="IwKMfdMyqlhypNHNIi63-11" value="" style="endArrow=none;html=1;rounded=0;entryX=0;entryY=0.5;entryDx=0;entryDy=0;exitX=1;exitY=0.5;exitDx=0;exitDy=0;" edge="1" parent="1" source="IwKMfdMyqlhypNHNIi63-10" target="IwKMfdMyqlhypNHNIi63-3">
          <mxGeometry width="50" height="50" relative="1" as="geometry">
            <mxPoint x="570" y="420" as="sourcePoint" />
            <mxPoint x="620" y="370" as="targetPoint" />
          </mxGeometry>
        </mxCell>
        <mxCell id="IwKMfdMyqlhypNHNIi63-19" value="INCLUIR" style="rhombus;whiteSpace=wrap;html=1;" vertex="1" parent="1">
          <mxGeometry x="385" y="240" width="80" height="80" as="geometry" />
        </mxCell>
        <mxCell id="IwKMfdMyqlhypNHNIi63-20" value="" style="endArrow=none;html=1;rounded=0;entryX=0.5;entryY=1;entryDx=0;entryDy=0;exitX=0.5;exitY=0;exitDx=0;exitDy=0;" edge="1" parent="1" source="IwKMfdMyqlhypNHNIi63-19" target="IwKMfdMyqlhypNHNIi63-6">
          <mxGeometry width="50" height="50" relative="1" as="geometry">
            <mxPoint x="715" y="180" as="sourcePoint" />
            <mxPoint x="650" y="180" as="targetPoint" />
          </mxGeometry>
        </mxCell>
        <mxCell id="IwKMfdMyqlhypNHNIi63-21" value="" style="endArrow=none;html=1;rounded=0;entryX=0.5;entryY=1;entryDx=0;entryDy=0;exitX=0.5;exitY=0;exitDx=0;exitDy=0;" edge="1" parent="1" source="IwKMfdMyqlhypNHNIi63-1" target="IwKMfdMyqlhypNHNIi63-19">
          <mxGeometry width="50" height="50" relative="1" as="geometry">
            <mxPoint x="435" y="250" as="sourcePoint" />
            <mxPoint x="435" y="210" as="targetPoint" />
          </mxGeometry>
        </mxCell>
        <mxCell id="IwKMfdMyqlhypNHNIi63-22" value="SUCURSAL" style="rounded=1;whiteSpace=wrap;html=1;" vertex="1" parent="1">
          <mxGeometry x="70" y="370" width="120" height="60" as="geometry" />
        </mxCell>
        <mxCell id="IwKMfdMyqlhypNHNIi63-23" value="&lt;ul&gt;&lt;li&gt;&lt;u&gt;CódigoSucursal&lt;/u&gt;&lt;/li&gt;&lt;li&gt;Dirección&lt;/li&gt;&lt;li&gt;CódigoPostal&lt;/li&gt;&lt;li&gt;Teléfono&lt;/li&gt;&lt;/ul&gt;" style="text;strokeColor=none;fillColor=none;html=1;whiteSpace=wrap;verticalAlign=middle;overflow=hidden;" vertex="1" parent="1">
          <mxGeometry x="50" y="420" width="140" height="80" as="geometry" />
        </mxCell>
        <mxCell id="IwKMfdMyqlhypNHNIi63-24" value="EMPLEADO" style="rounded=1;whiteSpace=wrap;html=1;" vertex="1" parent="1">
          <mxGeometry x="70" y="140" width="120" height="60" as="geometry" />
        </mxCell>
        <mxCell id="IwKMfdMyqlhypNHNIi63-25" value="&lt;ul&gt;&lt;li&gt;&lt;u&gt;ID_Empleado&lt;/u&gt;&lt;/li&gt;&lt;li&gt;DNI&lt;/li&gt;&lt;li&gt;Nombre&lt;/li&gt;&lt;li&gt;Apellidos&lt;br&gt;&lt;/li&gt;&lt;li&gt;Teléfono&lt;/li&gt;&lt;/ul&gt;" style="text;strokeColor=none;fillColor=none;html=1;whiteSpace=wrap;verticalAlign=middle;overflow=hidden;" vertex="1" parent="1">
          <mxGeometry x="60" y="50" width="140" height="90" as="geometry" />
        </mxCell>
        <mxCell id="IwKMfdMyqlhypNHNIi63-26" value="REALIZAR" style="rhombus;whiteSpace=wrap;html=1;" vertex="1" parent="1">
          <mxGeometry x="237" y="130" width="80" height="80" as="geometry" />
        </mxCell>
        <mxCell id="IwKMfdMyqlhypNHNIi63-27" value="" style="endArrow=none;html=1;rounded=0;entryX=1;entryY=0.5;entryDx=0;entryDy=0;exitX=0;exitY=0.5;exitDx=0;exitDy=0;" edge="1" parent="1" source="IwKMfdMyqlhypNHNIi63-6" target="IwKMfdMyqlhypNHNIi63-26">
          <mxGeometry width="50" height="50" relative="1" as="geometry">
            <mxPoint x="435" y="380" as="sourcePoint" />
            <mxPoint x="435" y="330" as="targetPoint" />
          </mxGeometry>
        </mxCell>
        <mxCell id="IwKMfdMyqlhypNHNIi63-28" value="" style="endArrow=none;html=1;rounded=0;entryX=1;entryY=0.5;entryDx=0;entryDy=0;exitX=0;exitY=0.5;exitDx=0;exitDy=0;" edge="1" parent="1" source="IwKMfdMyqlhypNHNIi63-26" target="IwKMfdMyqlhypNHNIi63-24">
          <mxGeometry width="50" height="50" relative="1" as="geometry">
            <mxPoint x="375" y="180" as="sourcePoint" />
            <mxPoint x="327" y="180" as="targetPoint" />
          </mxGeometry>
        </mxCell>
        <mxCell id="IwKMfdMyqlhypNHNIi63-29" value="TRABAJAR" style="rhombus;whiteSpace=wrap;html=1;" vertex="1" parent="1">
          <mxGeometry x="90" y="240" width="80" height="80" as="geometry" />
        </mxCell>
        <mxCell id="IwKMfdMyqlhypNHNIi63-30" value="" style="endArrow=none;html=1;rounded=0;entryX=0.5;entryY=1;entryDx=0;entryDy=0;exitX=0.5;exitY=0;exitDx=0;exitDy=0;" edge="1" parent="1" source="IwKMfdMyqlhypNHNIi63-29" target="IwKMfdMyqlhypNHNIi63-24">
          <mxGeometry width="50" height="50" relative="1" as="geometry">
            <mxPoint x="375" y="180" as="sourcePoint" />
            <mxPoint x="327" y="180" as="targetPoint" />
          </mxGeometry>
        </mxCell>
        <mxCell id="IwKMfdMyqlhypNHNIi63-31" value="" style="endArrow=none;html=1;rounded=0;entryX=0.5;entryY=1;entryDx=0;entryDy=0;exitX=0.5;exitY=0;exitDx=0;exitDy=0;" edge="1" parent="1" source="IwKMfdMyqlhypNHNIi63-22" target="IwKMfdMyqlhypNHNIi63-29">
          <mxGeometry width="50" height="50" relative="1" as="geometry">
            <mxPoint x="140" y="250" as="sourcePoint" />
            <mxPoint x="140" y="210" as="targetPoint" />
          </mxGeometry>
        </mxCell>
        <mxCell id="IwKMfdMyqlhypNHNIi63-32" value="PODER" style="rhombus;whiteSpace=wrap;html=1;" vertex="1" parent="1">
          <mxGeometry x="385" y="10" width="80" height="80" as="geometry" />
        </mxCell>
        <mxCell id="IwKMfdMyqlhypNHNIi63-33" value="" style="endArrow=none;html=1;rounded=0;exitX=0.5;exitY=1;exitDx=0;exitDy=0;entryX=0.5;entryY=0;entryDx=0;entryDy=0;" edge="1" parent="1" source="IwKMfdMyqlhypNHNIi63-32" target="IwKMfdMyqlhypNHNIi63-6">
          <mxGeometry width="50" height="50" relative="1" as="geometry">
            <mxPoint x="570" y="180" as="sourcePoint" />
            <mxPoint x="550" y="130" as="targetPoint" />
          </mxGeometry>
        </mxCell>
        <mxCell id="IwKMfdMyqlhypNHNIi63-34" value="ACCIDENTE" style="rounded=1;whiteSpace=wrap;html=1;" vertex="1" parent="1">
          <mxGeometry x="365" y="-110" width="120" height="60" as="geometry" />
        </mxCell>
        <mxCell id="IwKMfdMyqlhypNHNIi63-35" value="" style="endArrow=none;html=1;rounded=0;entryX=0.5;entryY=0;entryDx=0;entryDy=0;exitX=0.5;exitY=1;exitDx=0;exitDy=0;" edge="1" parent="1" source="IwKMfdMyqlhypNHNIi63-34" target="IwKMfdMyqlhypNHNIi63-32">
          <mxGeometry width="50" height="50" relative="1" as="geometry">
            <mxPoint x="570" y="180" as="sourcePoint" />
            <mxPoint x="495" y="180" as="targetPoint" />
          </mxGeometry>
        </mxCell>
        <mxCell id="IwKMfdMyqlhypNHNIi63-36" value="&lt;div&gt;&lt;i&gt;&lt;u&gt;&lt;br&gt;&lt;/u&gt;&lt;/i&gt;&lt;/div&gt;&lt;ul&gt;&lt;li&gt;&lt;u&gt;Num_Accidente&lt;/u&gt;&lt;/li&gt;&lt;li&gt;Matrícula&lt;/li&gt;&lt;li&gt;CompañiaAjena&lt;/li&gt;&lt;li&gt;Fecha&lt;/li&gt;&lt;li&gt;Hora&lt;/li&gt;&lt;li&gt;A_Favor&lt;/li&gt;&lt;li&gt;ImporteDaños&lt;/li&gt;&lt;/ul&gt;" style="text;strokeColor=none;fillColor=none;html=1;whiteSpace=wrap;verticalAlign=middle;overflow=hidden;" vertex="1" parent="1">
          <mxGeometry x="348" y="-244" width="160" height="140" as="geometry" />
        </mxCell>
        <mxCell id="IwKMfdMyqlhypNHNIi63-38" value="" style="endArrow=none;html=1;rounded=0;entryX=0;entryY=0.5;entryDx=0;entryDy=0;exitX=1;exitY=0.5;exitDx=0;exitDy=0;" edge="1" parent="1" source="IwKMfdMyqlhypNHNIi63-6" target="IwKMfdMyqlhypNHNIi63-10">
          <mxGeometry width="50" height="50" relative="1" as="geometry">
            <mxPoint x="650" y="180" as="sourcePoint" />
            <mxPoint x="714" y="180" as="targetPoint" />
          </mxGeometry>
        </mxCell>
        <mxCell id="IwKMfdMyqlhypNHNIi63-39" value="(0,N)" style="text;html=1;align=center;verticalAlign=middle;whiteSpace=wrap;rounded=0;" vertex="1" parent="1">
          <mxGeometry x="470" y="162" width="60" height="30" as="geometry" />
        </mxCell>
        <mxCell id="IwKMfdMyqlhypNHNIi63-40" value="(0,1)" style="text;html=1;align=center;verticalAlign=middle;whiteSpace=wrap;rounded=0;" vertex="1" parent="1">
          <mxGeometry x="660" y="162" width="60" height="30" as="geometry" />
        </mxCell>
        <mxCell id="IwKMfdMyqlhypNHNIi63-41" value="(1,N)" style="text;html=1;align=center;verticalAlign=middle;whiteSpace=wrap;rounded=0;" vertex="1" parent="1">
          <mxGeometry x="410" y="192" width="60" height="30" as="geometry" />
        </mxCell>
        <mxCell id="IwKMfdMyqlhypNHNIi63-42" value="(1,1)" style="text;html=1;align=center;verticalAlign=middle;whiteSpace=wrap;rounded=0;" vertex="1" parent="1">
          <mxGeometry x="410" y="348" width="60" height="30" as="geometry" />
        </mxCell>
      </root>
    </mxGraphModel>
  </diagram>
</mxfile>
